<?xml version="1.0" encoding="UTF-8"?>
<svg id="Capa_2" data-name="Capa 2" xmlns="http://www.w3.org/2000/svg" viewBox="0 0 385.87 102.07">
  <defs>
    <style>
      .cls-1 {
        fill: #fefeff;
      }
    </style>
  </defs>
  <g id="Capa_1-2" data-name="Capa 1">
    <g>
      <path class="cls-1" d="m110.02,44.98c2.63-5.11,6.21-9.04,10.73-11.79,4.52-2.75,9.57-4.13,15.15-4.13,4.87,0,9.14.98,12.79,2.95,3.65,1.97,6.58,4.44,8.78,7.43v-9.31h16.62v65.31h-16.62v-9.55c-2.12,3.07-5.05,5.6-8.78,7.6-3.73,2-8.03,3.01-12.91,3.01-5.5,0-10.51-1.41-15.03-4.24-4.52-2.83-8.1-6.82-10.73-11.97-2.63-5.15-3.95-11.06-3.95-17.74s1.32-12.46,3.95-17.56Zm45.09,7.49c-1.57-2.87-3.7-5.07-6.37-6.6-2.67-1.53-5.54-2.3-8.61-2.3s-5.9.75-8.49,2.24c-2.59,1.49-4.7,3.68-6.31,6.54-1.61,2.87-2.42,6.27-2.42,10.2s.81,7.37,2.42,10.31c1.61,2.95,3.73,5.21,6.37,6.78,2.63,1.57,5.44,2.36,8.43,2.36s5.93-.77,8.61-2.3c2.67-1.53,4.79-3.73,6.37-6.6,1.57-2.87,2.36-6.31,2.36-10.31s-.79-7.45-2.36-10.31Z"/>
      <path class="cls-1" d="m248.89,30.36v65.31h-16.62v-8.25c-2.12,2.83-4.89,5.05-8.31,6.66-3.42,1.61-7.13,2.42-11.14,2.42-5.11,0-9.63-1.08-13.56-3.24-3.93-2.16-7.01-5.34-9.25-9.55-2.24-4.2-3.36-9.21-3.36-15.03V30.36h16.5v35.95c0,5.19,1.3,9.18,3.89,11.97,2.59,2.79,6.13,4.19,10.61,4.19s8.13-1.39,10.73-4.19c2.59-2.79,3.89-6.78,3.89-11.97V30.36h16.62Z"/>
      <path class="cls-1" d="m289.98,33.19c3.42-1.96,7.33-2.95,11.73-2.95v17.33h-4.36c-5.19,0-9.1,1.22-11.73,3.65-2.63,2.44-3.95,6.68-3.95,12.73v32.54h-16.5V31.18h16.5v10.14c2.12-3.46,4.89-6.17,8.31-8.13Z"/>
      <path class="cls-1" d="m385.54,60.93c-.08-1.33.09-3.1-.28-4.37-.6-2.11-2.74-1.57-4.56-1.15-5.14,1.19-7.55,5.15-10.4,9.17.58-.82-.27-4.28-.4-5.27-.29-2.1-.6-3.54-1.25-5.82-.46-1.62-1.97-6.98-4.33-11.04-2.95-5.08-8.62-10.49-16.34-12.94-11.12-3.53-20.63.94-23.7,2.61-9.93,5.37-13.65,14.39-14.85,17.23-1.81,4.27-2.74,8.87-2.83,13.51-.04,2.36.12,4.71.46,7.05.15,1.04.74,2.4.62,3.42-.15,1.35-1.14,1.67-2.18,2.56-2.81,2.4-4.63,5.81-6.53,10.34-.95,2.25-2.09,5.7-2.44,10.2,4.73,0,9.45-.02,14.18-.03-.01-1.48.12-3.47.72-5.72.47-1.77,1.11-3.24,1.7-4.37,5.52,6.63,11.7,12.76,20.33,15.02,6.92,1.82,13.99.27,17.88-6.18,3.7-6.14,1.34-12.51-3.34-17.29-5.72-5.85-13.47-8.48-21.56-8.34-1.86.03-3.7.26-5.68.41-2.14-11.39,4.76-25.91,17.5-26.69,5.32-.32,10.68,2.31,14.21,6.22,3.92,4.36,5.19,10.02,5.63,15.7-2.56-3.56-5.36-6.7-9.62-8.23-1.14-.41-4.83-1.68-5.93-.8-1.12.91-.25,4.6-.19,5.92.1,1.97-.34,4.51,1.17,5.87,1.76,1.6,4.59,2.44,6.51,4.01,3.16,2.57,5.64,5.91,6.99,9.77.6,1.71.95,3.5,1.15,5.3.24,2.25.31,2.76,2.68,2.86,2.39.09,4.84.16,7.23.1,2.28-.06,2.17-1,2.6-3.08,1-4.7,2.92-9.21,5.95-12.97,1.35-1.69,2.91-3.29,4.65-4.6,1.64-1.24,4.29-1.82,4.55-4.06.16-1.38-.2-2.99-.29-4.38Zm-58.52,20.92c2.82-.25,5.66.24,8.2,1.5,1.66.82,5.63,2.95,4.19,5.33-1.37,2.28-5.15.72-6.88-.18-2.87-1.48-5.07-3.94-6.7-6.7.39.02.8.09,1.19.05Z"/>
      <path class="cls-1" d="m22.74,96.43H0V.85c5.59,0,11.19,0,16.78,0,2.89,0,5.77,0,8.66,0,1.28,0,2.57,0,3.85,0,.91,0,2.4-.38,2.97.33.31.39.31,1.43.42,1.94.14.65.28,1.29.42,1.94.32,1.48.65,2.95.97,4.43.63,2.86,1.29,5.71,1.91,8.57,1.04,4.81,2.07,9.59,3.12,14.41,2.36,10.83,4.93,21.62,7.16,32.48.18.88.21,1.93.58,2.76.46,1.01,1.49,1.12,2.04.13,1.15-2.08.68-5.49.63-7.77-.12-5.5-1.05-10.96-1.18-16.45-.07-2.85-.46-5.66-.45-8.51,0-2.69-.2-5.55.08-8.23.53-5.11,1.28-10.52,3.68-15.14,2.14-4.12,5.35-7.55,9.61-9.47C65.86.2,71.25-.36,76.23.21c23.36,2.67,24.19,31.88,22.91,49.89-.78,10.9-2.84,21.72-5.43,32.32-.66,2.69-1.36,5.37-2.08,8.04-.35,1.29-.71,2.58-1.09,3.87-.14.47-.23,1.31-.51,1.73-.38.56-.71.42-1.42.42-5.71-.01-11.42-.02-17.14-.02-2.63,0-5.26,0-7.89,0,.1-.89.83-1.91,1.21-2.72.43-.92.87-1.84,1.3-2.77.94-2.01,1.87-4.02,2.77-6.05,1.73-3.92,3.35-7.89,4.85-11.9,2.97-7.9,5.64-15.95,7.31-24.24.84-4.16,1.51-8.38,1.53-12.63.02-3.69-.34-7.75-2.45-10.9-1.83-2.72-5.08-3.79-8.26-3.31-3.84.57-5.68,4.05-6.57,7.48-1.03,3.97-1.16,8.19-1.17,12.27-.02,4.28.06,8.57.13,12.85.13,8.6.06,17.38-1.57,25.86-.69,3.59-2.17,7.11-4.67,9.82-2.55,2.77-6.18,3.71-9.83,3.78-1.78.03-3.91-.11-5.65-.42-1.59-.29-3.19-1.08-4.31-2.24-2.71-2.79-3.19-7.07-3.95-10.71-1.93-9.28-3.66-18.61-5.68-27.88-1-4.58-1.92-9.18-2.82-13.79-.45-2.31-.89-4.61-1.35-6.92-.2-.99-.37-2-.6-2.99-.29-1.22-.81-1-1.95-1,.3,22.79.6,45.55.9,68.37Z"/>
    </g>
  </g>
</svg>